<?xml version="1.0" encoding="UTF-8" standalone="no"?>
<svg
   id="svg8"
   version="1.1"
   viewBox="0 0 80.563644 27.318308"
   height="27.318308mm"
   width="80.563644mm"
   sodipodi:docname="logo2.svg"
   inkscape:version="1.3 (0e150ed6c4, 2023-07-21)"
   xmlns:inkscape="http://www.inkscape.org/namespaces/inkscape"
   xmlns:sodipodi="http://sodipodi.sourceforge.net/DTD/sodipodi-0.dtd"
   xmlns="http://www.w3.org/2000/svg"
   xmlns:svg="http://www.w3.org/2000/svg"
   xmlns:rdf="http://www.w3.org/1999/02/22-rdf-syntax-ns#"
   xmlns:cc="http://creativecommons.org/ns#"
   xmlns:dc="http://purl.org/dc/elements/1.1/">
  <sodipodi:namedview
     id="namedview1"
     pagecolor="#ffffff"
     bordercolor="#000000"
     borderopacity="0.25"
     inkscape:showpageshadow="2"
     inkscape:pageopacity="0.0"
     inkscape:pagecheckerboard="0"
     inkscape:deskcolor="#d1d1d1"
     inkscape:document-units="mm"
     inkscape:zoom="4.5124262"
     inkscape:cx="152.68948"
     inkscape:cy="48.643455"
     inkscape:window-width="1920"
     inkscape:window-height="1017"
     inkscape:window-x="-8"
     inkscape:window-y="-8"
     inkscape:window-maximized="1"
     inkscape:current-layer="svg8" />
  <defs
     id="defs2" />
  <metadata
     id="metadata5">
    <rdf:RDF>
      <cc:Work
         rdf:about="">
        <dc:format>image/svg+xml</dc:format>
        <dc:type
           rdf:resource="http://purl.org/dc/dcmitype/StillImage" />
      </cc:Work>
    </rdf:RDF>
  </metadata>
  <g
     transform="translate(-48.969913,-93.352266)"
     id="layer1"
     style="fill:#666666">
    <g
       id="text819"
       style="font-style:normal;font-weight:normal;font-size:38.4239px;line-height:1.25;font-family:sans-serif;letter-spacing:0px;word-spacing:0px;fill:#666666;fill-opacity:1;stroke:none;stroke-width:0.960598"
       aria-label="MGM">
      <path
         id="path821"
         style="font-style:normal;font-variant:normal;font-weight:normal;font-stretch:normal;font-family:Rubik;-inkscape-font-specification:Rubik;fill:#666666;stroke-width:0.960598"
         d="m 68.622744,94.790166 c 0.409855,-0.81971 0.973406,-1.229565 1.690652,-1.229565 h 1.460108 c 0.281775,0 0.525127,0.102464 0.730055,0.307391 0.204927,0.204927 0.269016,0.450904 0.307391,0.730054 0,0 -0.9319,18.251724 5.01044,20.969534 5.140966,2.35129 13.700273,2.43563 13.294546,4.55406 -5.391055,-2.24856 -13.600804,0.75453 -17.385093,-3.64906 -3.338814,-4.95828 -4.570164,-9.38867 -4.570164,-15.2656 l -5.99413,11.56559 c -0.204927,0.40986 -0.435471,0.71725 -0.69163,0.92218 -0.230543,0.20493 -0.525127,0.30739 -0.88375,0.30739 H 60.13106 c -0.358623,0 -0.666014,-0.10246 -0.922174,-0.30739 -0.230543,-0.20493 -0.448279,-0.51232 -0.653206,-0.92218 l -5.99413,-11.56559 v 18.21293 c 0,0.28177 -0.102464,0.52513 -0.307391,0.73006 -0.204927,0.20493 -0.448279,0.30739 -0.730054,0.30739 h -1.57538 c -0.281775,0 -0.525127,-0.10246 -0.730055,-0.30739 -0.204927,-0.20493 -0.307391,-0.44829 -0.307391,-0.73006 V 94.598046 c 0,-0.281775 0.102464,-0.525127 0.307391,-0.730054 0.204928,-0.204927 0.44828,-0.307391 0.730055,-0.307391 h 1.460108 c 0.717247,0 1.280797,0.409855 1.690652,1.229565 l 7.76163,15.023744 z" />
      <path
         id="path823"
         style="font-style:normal;font-variant:normal;font-weight:normal;font-stretch:normal;font-family:Rubik;-inkscape-font-specification:Rubik;fill:#666666;stroke-width:0.86797"
         d="m 89.4455,93.176362 q 3.266032,0 5.648314,1.00387 2.382282,0.9725 3.611848,2.415565 1.267989,1.411693 1.344838,2.635164 0.0384,0.282335 -0.230545,0.501934 -0.268967,0.188222 -0.614783,0.188222 h -1.57538 q -0.88375,0 -1.114293,-0.345078 -1.114294,-1.756775 -2.689674,-2.666533 -1.536956,-0.909758 -4.380325,-0.909758 -3.227609,0 -5.225652,1.505806 -1.998043,1.474432 -2.113315,4.266446 -0.03842,0.94113 -0.03842,2.6038 0,1.66265 0.03842,2.60378 0.115272,2.94888 2.074891,4.45469 1.998043,1.50579 5.264076,1.50579 3.34288,0 5.340923,-1.41169 1.998043,-1.44306 1.998043,-4.5174 v -0.87839 h -5.533043 q -0.422663,0 -0.730054,-0.25098 -0.307391,-0.25097 -0.307391,-0.59605 v -1.12935 q 0,-0.34508 0.307391,-0.59605 0.307391,-0.25097 0.730054,-0.25097 h 8.145869 q 0.422663,0 0.730058,0.25097 0.30739,0.25097 0.30739,0.59605 v 2.98023 q 0,2.50969 -1.306415,4.48606 -1.306413,1.945 -3.803967,3.04298 -2.459131,1.09799 -5.878858,1.09799 -5.3025,0 -8.069021,-2.38419 -2.766521,-2.41557 -2.920217,-6.24284 -0.03842,-0.94112 -0.03842,-2.76063 0,-1.81952 0.03842,-2.76065 0.115272,-2.415565 1.306413,-4.297821 1.229565,-1.913629 3.650271,-3.011613 2.45913,-1.129354 6.032554,-1.129354 z" />
    </g>
    <path
       id="path821-6"
       style="font-style:normal;font-variant:normal;font-weight:normal;font-stretch:normal;font-size:38.4239px;line-height:1.25;font-family:Rubik;-inkscape-font-specification:Rubik;letter-spacing:0px;word-spacing:0px;fill:#666666;fill-opacity:1;stroke:none;stroke-width:0.960598"
       d="m 109.76346,94.827472 c -0.40986,-0.81971 -0.97341,-1.22956 -1.69066,-1.22956 h -1.4601 c -0.28178,0 -0.52513,0.10246 -0.73006,0.30739 -0.20493,0.20493 -0.26901,0.4509 -0.30739,0.73005 0,0 0.9319,18.251728 -5.01044,20.969538 -5.140966,2.35129 -13.700276,2.43563 -13.294546,4.55406 5.39105,-2.24856 13.600806,0.75453 17.385096,-3.64906 3.33881,-4.95828 4.57016,-9.38867 4.57016,-15.2656 l 5.99413,11.56559 c 0.20493,0.40986 0.43547,0.71725 0.69163,0.92218 0.23054,0.20493 0.52513,0.30739 0.88375,0.30739 h 1.46011 c 0.35862,0 0.66601,-0.10246 0.92217,-0.30739 0.23054,-0.20493 0.44828,-0.51232 0.65321,-0.92218 l 5.99413,-11.56559 v 18.21293 c 0,0.28177 0.10246,0.52513 0.30739,0.73006 0.20493,0.20493 0.44828,0.30739 0.73005,0.30739 h 1.57538 c 0.28178,0 0.52513,-0.10246 0.73006,-0.30739 0.20492,-0.20493 0.30739,-0.44829 0.30739,-0.73006 V 94.635352 c 0,-0.28177 -0.10247,-0.52512 -0.30739,-0.73005 -0.20493,-0.20493 -0.44828,-0.30739 -0.73006,-0.30739 h -1.46011 c -0.71724,0 -1.28079,0.40985 -1.69065,1.22956 l -7.76162,15.023748 z" />
  </g>
</svg>
